<svg width="75" height="75" viewBox="0 0 75 75" fill="none" xmlns="http://www.w3.org/2000/svg">
<path d="M28.125 6.25C16.0808 6.25 6.25 16.0808 6.25 28.125C6.25 40.1692 16.0808 50 28.125 50C33.5875 50 38.5782 47.9626 42.4194 44.6289L43.75 45.9595V50L62.5 68.75L68.75 62.5L50 43.75H45.9595L44.6289 42.4194C47.9626 38.5782 50 33.5875 50 28.125C50 16.0808 40.1692 6.25 28.125 6.25ZM28.125 12.5C36.7915 12.5 43.75 19.4585 43.75 28.125C43.75 36.7915 36.7915 43.75 28.125 43.75C19.4585 43.75 12.5 36.7915 12.5 28.125C12.5 19.4585 19.4585 12.5 28.125 12.5Z" fill="black"/>
</svg>
