<svg width="84" height="84" viewBox="0 0 84 84" fill="none" xmlns="http://www.w3.org/2000/svg">
<g clip-path="url(#clip0_46_18)">
<path d="M24.5 63C20.65 63 17.535 66.15 17.535 70C17.535 73.85 20.65 77 24.5 77C28.35 77 31.5 73.85 31.5 70C31.5 66.15 28.35 63 24.5 63ZM3.5 7V14H10.5L23.1 40.565L18.375 49.14C17.815 50.12 17.5 51.275 17.5 52.5C17.5 56.35 20.65 59.5 24.5 59.5H66.5V52.5H25.97C25.48 52.5 25.095 52.115 25.095 51.625L25.2 51.205L28.35 45.5H54.425C57.05 45.5 59.36 44.065 60.55 41.895L73.08 19.18C73.36 18.69 73.5 18.095 73.5 17.5C73.5 15.575 71.925 14 70 14H18.235L14.945 7H3.5ZM59.5 63C55.65 63 52.535 66.15 52.535 70C52.535 73.85 55.65 77 59.5 77C63.35 77 66.5 73.85 66.5 70C66.5 66.15 63.35 63 59.5 63Z" fill="black"/>
</g>
<defs>
<clipPath id="clip0_46_18">
<rect width="84" height="84" fill="white"/>
</clipPath>
</defs>
</svg>
